<?xml version="1.0" standalone="no"?><!DOCTYPE svg PUBLIC "-//W3C//DTD SVG 1.1//EN" "http://www.w3.org/Graphics/SVG/1.1/DTD/svg11.dtd"><svg t="1658822468531" class="icon" viewBox="0 0 1024 1024" version="1.1" xmlns="http://www.w3.org/2000/svg" p-id="9328" xmlns:xlink="http://www.w3.org/1999/xlink" width="200" height="200"><defs><style type="text/css">@font-face { font-family: feedback-iconfont; src: url("//at.alicdn.com/t/font_1031158_u69w8yhxdu.woff2?t=1630033759944") format("woff2"), url("//at.alicdn.com/t/font_1031158_u69w8yhxdu.woff?t=1630033759944") format("woff"), url("//at.alicdn.com/t/font_1031158_u69w8yhxdu.ttf?t=1630033759944") format("truetype"); }
</style></defs><path d="M684.9 273.2H341.1c-13 0-23.5-10.5-23.5-23.5V97c0-13 10.5-23.5 23.5-23.5h343.7c13 0 23.5 10.5 23.5 23.5v152.7c0.1 13-10.5 23.5-23.4 23.5zM341.1 96.5c-0.2 0-0.5 0.3-0.5 0.5v152.7c0 0.2 0.3 0.5 0.5 0.5h343.7c0.2 0 0.5-0.3 0.5-0.5V97c0-0.2-0.3-0.5-0.5-0.5H341.1z" fill="#6C6E72" p-id="9329"></path><path d="M805.9 928.3H219.1c-31.5 0-57.2-25.8-57.2-57.2V226.2h701.3V871c0 31.5-25.8 57.3-57.3 57.3z" fill="#8C8C8C" p-id="9330"></path><path d="M919.1 232.3H106.9v-28.4c0-6.6 5.4-12 12-12h788.2c6.6 0 12 5.4 12 12v28.4z" fill="#6E6E6E" p-id="9331"></path><path d="M324.1 814.7h-34.3c-6.6 0-12-5.4-12-12V332c0-6.6 5.4-12 12-12h34.3c6.6 0 12 5.4 12 12v470.7c0 6.6-5.4 12-12 12zM525.6 814.7h-34.3c-6.6 0-12-5.4-12-12V332c0-6.6 5.4-12 12-12h34.3c6.6 0 12 5.4 12 12v470.7c0 6.6-5.4 12-12 12zM718.2 814.3h-34.3c-6.6 0-12-5.4-12-12V331.5c0-6.6 5.4-12 12-12h34.3c6.6 0 12 5.4 12 12v470.7c0 6.7-5.4 12.1-12 12.1z" fill="#515151" p-id="9332"></path></svg>